{"title":"The Wolverine 2013 CAM AC3 XViD-SSRG","uid":8771203,"size":1500739837,"categoryP":"video","categoryS":"movies","magnet":"?xt=urn:btih:98eb43c955aaf872303c849e57970cf2ae1cb9d7&amp;dn=The+Wolverine+2013+CAM+AC3+XViD-SSRG&amp;tr=udp%3A%2F%2Ftracker.openbittorrent.com%3A80&amp;tr=udp%3A%2F%2Fopen.demonii.com%3A1337&amp;tr=udp%3A%2F%2Ftracker.coppersurfer.tk%3A6969&amp;tr=udp%3A%2F%2Fexodus.desync.com%3A6969","seeders":1,"leechers":0,"uploader":"sC0rp-ET","files":-1,"time":1375461186,"description":"\nGeneral\nComplete name                  : ssrg-wolverine\nFormat                         : AVI\nFormat/Info                    : Audio Video Interleave\nFile size                      : 1.37 GiB\nDuration                       : 1h 49mn\nOverall bit rate               : 1 789 Kbps\nMovie name                     : ssrg-wolverine\nDirector                       : sC0rp\n\nVideo\nID                             : 0\nFormat                         : MPEG-4 Visual\nFormat profile                 : Advanced Simple@L5\nFormat settings, BVOP          : 2\nFormat settings, QPel          : No\nFormat settings, GMC           : No warppoints\nFormat settings, Matrix        : Default (H.263)\nMuxing mode                    : Packed bitstream\nCodec ID                       : XVID\nCodec ID/Hint                  : XviD\nDuration                       : 1h 49mn\nBit rate                       : 1 651 Kbps\nWidth                          : 720 pixels\nHeight                         : 288 pixels\nDisplay aspect ratio           : 2.500\nFrame rate                     : 25.000 fps\nColor space                    : YUV\nChroma subsampling             : 4:2:0\nBit depth                      : 8 bits\nScan type                      : Progressive\nCompression mode               : Lossy\nBits/(Pixel*Frame)             : 0.319\nStream size                    : 1.26 GiB (92%)\nWriting library                : XviD 1.2.1 (UTC 2008-12-04)\n\nAudio\nID                             : 1\nFormat                         : AC-3\nFormat/Info                    : Audio Coding 3\nMode extension                 : CM (complete main)\nFormat settings, Endianness    : Big\nCodec ID                       : 2000\nDuration                       : 1h 49mn\nBit rate mode                  : Constant\nBit rate                       : 128 Kbps\nChannel(s)                     : 2 channels\nChannel positions              : Front: L R\nSampling rate                  : 48.0 KHz\nBit depth                      : 16 bits\nCompression mode               : Lossy\nStream size                    : 100 MiB (7%)\nAlignment                      : Aligned on interleaves\nInterleave, duration           : 40 ms (1.00 video frame)\nInterleave, preload duration   : 512 ms\nLanguage                       : English\n\nScreenshots: &lt;a href=&quot;\nhttp://s24.postimg.org/gfrk47lhx/ssrg_wolverine_1.jpg&quot; rel=&quot;nofollow&quot; target=&quot;_NEW&quot;&gt;\nhttp://s24.postimg.org/gfrk47lhx/ssrg_wolverine_1.jpg&lt;/a&gt;\n &lt;a href=&quot;\nhttp://s24.postimg.org/o9s5pltat/ssrg_wolverine_3.jpg&quot; rel=&quot;nofollow&quot; target=&quot;_NEW&quot;&gt;\nhttp://s24.postimg.org/o9s5pltat/ssrg_wolverine_3.jpg&lt;/a&gt;\n  &lt;a href=&quot;\nhttp://s24.postimg.org/p9iglb8gl/ssrg_wolverine_2.jpg&quot; rel=&quot;nofollow&quot; target=&quot;_NEW&quot;&gt;\nhttp://s24.postimg.org/p9iglb8gl/ssrg_wolverine_2.jpg&lt;/a&gt;","torrent":{"xt":"urn:btih:98eb43c955aaf872303c849e57970cf2ae1cb9d7","amp;dn":"The+Wolverine+2013+CAM+AC3+XViD-SSRG","amp;tr":["udp%3A%2F%2Ftracker.openbittorrent.com%3A80","udp%3A%2F%2Fopen.demonii.com%3A1337","udp%3A%2F%2Ftracker.coppersurfer.tk%3A6969","udp%3A%2F%2Fexodus.desync.com%3A6969"],"infoHash":"98eb43c955aaf872303c849e57970cf2ae1cb9d7","infoHashBuffer":{"type":"Buffer","data":[152,235,67,201,85,170,248,114,48,60,132,158,87,151,12,242,174,28,185,215]},"announce":[],"urlList":[]}}